<svg width="22" height="22" viewBox="0 0 22 22" fill="none" xmlns="http://www.w3.org/2000/svg">
<g clip-path="url(#clip0_6_119)">
<path d="M-1 22C3.20624 19.6974 6 15.6315 6 11C6 6.36847 3.20624 2.30263 -1 0" stroke="black"/>
<mask id="mask0_6_119" style="mask-type:alpha" maskUnits="userSpaceOnUse" x="3" y="-1" width="22" height="24">
<rect x="3" y="-1" width="22" height="24" fill="#D9D9D9"/>
</mask>
<g mask="url(#mask0_6_119)">
<path d="M4.64069 20.6523L3.82036 21.5H5H11.982C13.8877 21.5 15.5283 20.219 16.6658 18.3289C17.8091 16.4291 18.5 13.8367 18.5 11C18.5 8.16327 17.8091 5.57092 16.6658 3.67112C15.5283 1.78104 13.8877 0.5 11.982 0.5H5H3.82036L4.64069 1.3477C6.59002 3.36207 8.5 6.93793 8.5 11C8.5 15.0621 6.59002 18.6379 4.64069 20.6523Z" stroke="black"/>
<circle cx="20" cy="11" r="1.5" stroke="black"/>
</g>
</g>
<defs>
<clipPath id="clip0_6_119">
<rect width="22" height="22" fill="white"/>
</clipPath>
</defs>
</svg>
