<svg width="22" height="22" viewBox="0 0 22 22" fill="none" xmlns="http://www.w3.org/2000/svg">
<g clip-path="url(#clip0_19_2)">
<path d="M6.375 5.89844H7.88281L11.8281 17H10.4844L9.35938 13.7734H4.78125L3.65625 17H2.42969L6.375 5.89844ZM7.07031 7.19531L5.17969 12.6094H8.95312L7.07031 7.19531ZM16.1875 9.13281C16.7604 9.13281 17.2448 9.20052 17.6406 9.33594C18.0417 9.46615 18.349 9.65885 18.5625 9.91406C18.7812 10.1693 18.9375 10.4531 19.0312 10.7656C19.125 11.0781 19.1719 11.4375 19.1719 11.8438V17H18.2656L17.9688 16.2969C17.3385 16.8698 16.6146 17.1562 15.7969 17.1562C15.0677 17.1562 14.4505 16.9375 13.9453 16.5C13.4401 16.0573 13.1875 15.5417 13.1875 14.9531C13.1875 14.6406 13.2448 14.3594 13.3594 14.1094C13.474 13.8594 13.638 13.651 13.8516 13.4844C14.0703 13.3177 14.3177 13.1771 14.5938 13.0625C14.8698 12.9427 15.1901 12.8516 15.5547 12.7891C15.9245 12.7266 16.2943 12.6823 16.6641 12.6562C17.0339 12.6302 17.4401 12.6172 17.8828 12.6172V12.0078C17.8828 11.8307 17.875 11.6771 17.8594 11.5469C17.849 11.4167 17.8073 11.2604 17.7344 11.0781C17.6615 10.8958 17.5625 10.7474 17.4375 10.6328C17.3125 10.513 17.125 10.4115 16.875 10.3281C16.625 10.2396 16.3281 10.1953 15.9844 10.1953C15.4531 10.1953 14.7656 10.3125 13.9219 10.5469L13.6797 9.60938C14.5339 9.29167 15.3698 9.13281 16.1875 9.13281ZM17.8828 13.5859H17.4062C17.1094 13.5859 16.8516 13.5911 16.6328 13.6016C16.4141 13.612 16.1562 13.6432 15.8594 13.6953C15.5677 13.7422 15.3281 13.8099 15.1406 13.8984C14.9531 13.987 14.7917 14.1172 14.6562 14.2891C14.526 14.4557 14.4609 14.6562 14.4609 14.8906C14.4609 15.2188 14.625 15.5104 14.9531 15.7656C15.2865 16.0208 15.6823 16.1484 16.1406 16.1484C16.8125 16.1484 17.3932 15.8854 17.8828 15.3594V13.5859Z" fill="black"/>
</g>
<defs>
<clipPath id="clip0_19_2">
<rect width="22" height="22" fill="white"/>
</clipPath>
</defs>
</svg>
